<svg width="32" height="49" viewBox="0 0 32 49" fill="none" xmlns="http://www.w3.org/2000/svg">
<path d="M9.70078 38.1596C9.82605 26.5839 22.1316 24.1372 20.7536 11.4894C20.3566 7.84819 18.5994 3.53253 15.0337 0.0792192C14.8475 -0.101416 14.5377 0.0490202 14.5611 0.307389C15.6366 11.9262 7.43977 17.4341 3.75437 22.276C-4.41781 33.0129 1.58899 46.7803 13.7033 48.6029C13.9711 48.6431 14.135 48.3182 13.9426 48.1275C11.4557 45.6624 9.70022 42.5334 9.70022 38.1596H9.70078Z" fill="white"/>
<path d="M25.5506 19.6308C25.3873 19.4922 25.1362 19.5811 25.0954 19.7914C24.8018 21.2924 23.8673 23.7709 20.8687 28.1157C13.1036 39.3648 16.8556 44.3638 20.2457 48.1231C20.9933 49.0128 20.6201 47.9255 22.2095 46.8245C24.344 45.3458 25.2496 45.1591 27.2725 43.36C29.58 41.0481 31.4523 37.408 31.6335 33.7215C32.0278 25.7087 27.3145 21.1279 25.5506 19.6308Z" fill="#008CD6"/>
</svg>
