<svg width="166" height="49" viewBox="0 0 166 49" fill="none" xmlns="http://www.w3.org/2000/svg">
<path fill-rule="evenodd" clip-rule="evenodd" d="M61.2357 12.4064V26.5374H47.6702V14.2245C47.6702 13.2202 46.8781 12.4064 45.9006 12.4064H41.322V46.0815C41.322 47.0853 42.1146 47.8997 43.0916 47.8997H47.6702V32.2373H61.2357V46.0815C61.2357 47.0853 62.0278 47.8997 63.0053 47.8997H67.5839V14.2245C67.5839 13.2202 66.7913 12.4064 65.8138 12.4064H61.2357Z" fill="white"/>
<path fill-rule="evenodd" clip-rule="evenodd" d="M88.4067 20.7628V37.6013C88.4067 39.1315 87.6321 40.5819 86.3185 41.347C82.6504 43.4836 78.8552 40.8151 78.8552 37.2959V22.5826C78.8552 21.5771 78.047 20.7623 77.0496 20.7623H72.359H72.3585V37.8966C72.3585 43.4091 76.833 47.9194 82.301 47.9194H84.9599C90.4284 47.9194 94.9024 43.4091 94.9024 37.8961V22.5826C94.9024 21.5771 94.0942 20.7623 93.0973 20.7623H88.4067V20.7628Z" fill="white"/>
<path fill-rule="evenodd" clip-rule="evenodd" d="M160.479 47.8997H165.071V24.018C165.071 23.011 164.276 22.1949 163.296 22.1949H158.704V46.0762C158.704 47.0832 159.499 47.8997 160.479 47.8997Z" fill="white"/>
<path fill-rule="evenodd" clip-rule="evenodd" d="M161.927 19.4891C163.883 19.4891 165.469 17.9037 165.469 15.9477C165.469 13.9918 163.883 12.4064 161.927 12.4064C159.971 12.4064 158.386 13.9918 158.386 15.9477C158.386 17.9037 159.971 19.4891 161.927 19.4891Z" fill="white"/>
<path fill-rule="evenodd" clip-rule="evenodd" d="M117.707 36.6394C117.707 39.8747 115.099 42.0285 111.911 42.0285C108.723 42.0285 106.115 39.8747 106.115 36.6394V32.0225C106.115 28.7872 108.723 26.6334 111.911 26.6334C115.099 26.6334 117.707 28.7872 117.707 32.0225V36.6394ZM111.911 20.7623C105.171 20.7623 99.6553 25.6555 99.6553 32.4955V36.1951C99.6553 43.0355 105.171 47.8996 111.911 47.8996C118.652 47.8996 124.166 43.0355 124.166 36.1951V32.4955C124.166 25.6555 118.652 20.7623 111.911 20.7623Z" fill="white"/>
<path fill-rule="evenodd" clip-rule="evenodd" d="M147.11 36.6471C147.11 39.8801 144.485 42.0325 141.277 42.0325C138.068 42.0325 135.443 39.8801 135.443 36.6471V32.0333C135.443 28.8002 138.068 26.6478 141.277 26.6478C144.485 26.6478 147.11 28.8002 147.11 32.0333V36.6471ZM141.277 20.7807C139.156 20.7807 137.157 21.2581 135.409 22.1237V14.2225C135.409 13.2195 134.601 12.4064 133.606 12.4064H128.941V36.203C128.941 43.0388 134.492 47.8997 141.277 47.8997C148.06 47.8997 153.611 43.0388 153.611 36.203V32.5059C153.611 25.6706 148.06 20.7807 141.277 20.7807Z" fill="white"/>
<path d="M9.70078 38.1596C9.82605 26.5839 22.1316 24.1372 20.7536 11.4894C20.3566 7.84819 18.5994 3.53253 15.0337 0.0792192C14.8475 -0.101416 14.5377 0.0490202 14.5611 0.307389C15.6366 11.9262 7.43977 17.4341 3.75437 22.276C-4.41781 33.0129 1.58899 46.7803 13.7033 48.6029C13.9711 48.6431 14.135 48.3182 13.9426 48.1275C11.4557 45.6624 9.70022 42.5334 9.70022 38.1596H9.70078Z" fill="white"/>
<path d="M25.5506 19.6308C25.3873 19.4922 25.1362 19.5811 25.0954 19.7914C24.8018 21.2924 23.8673 23.7709 20.8687 28.1157C13.1036 39.3648 16.8556 44.3638 20.2457 48.1231C20.9933 49.0128 20.6201 47.9255 22.2095 46.8245C24.344 45.3458 25.2496 45.1591 27.2725 43.36C29.58 41.0481 31.4523 37.408 31.6335 33.7215C32.0278 25.7087 27.3145 21.1279 25.5506 19.6308Z" fill="#008CD6"/>
</svg>
